<?xml version="1.0" standalone="no"?>
<!DOCTYPE svg PUBLIC "-//W3C//DTD SVG 20010904//EN"
 "http://www.w3.org/TR/2001/REC-SVG-20010904/DTD/svg10.dtd">
<svg version="1.0" xmlns="http://www.w3.org/2000/svg"
 width="700.000000pt" height="700.000000pt" viewBox="0 0 700.000000 700.000000"
 preserveAspectRatio="xMidYMid meet">
<metadata>
Created by potrace 1.14, written by Peter Selinger 2001-2017
</metadata>
<g transform="translate(0.000000,700.000000) scale(0.100000,-0.100000)"
fill="#000000" stroke="none">
<path d="M3279 6996 c-2 -2 -40 -6 -84 -10 -315 -24 -661 -106 -985 -233 -263
-103 -565 -272 -785 -436 -101 -76 -159 -120 -165 -128 -3 -3 -43 -39 -90 -80
-452 -400 -803 -934 -995 -1514 -32 -100 -79 -266 -90 -326 -3 -13 -11 -58
-20 -99 -22 -115 -30 -160 -41 -255 -26 -230 -26 -666 1 -826 2 -13 6 -46 9
-74 9 -78 23 -156 51 -285 30 -141 110 -396 173 -550 176 -436 455 -847 800
-1184 85 -82 120 -113 232 -210 57 -49 275 -204 351 -251 347 -210 669 -346
1029 -434 123 -30 312 -65 400 -75 246 -28 683 -28 852 -1 13 2 45 6 72 10
514 65 1069 284 1520 600 264 184 560 463 735 693 20 26 44 55 53 66 33 37
176 252 232 350 73 127 143 267 191 381 20 50 44 104 51 122 58 130 149 468
183 674 20 123 24 162 36 289 l6 65 -112 65 c-62 36 -133 76 -158 90 -25 15
-75 43 -111 64 -66 39 -101 60 -166 96 -19 11 -194 112 -387 224 -194 111
-372 214 -397 228 -25 14 -70 40 -100 58 -30 18 -80 46 -110 63 -30 17 -67 38
-82 49 -14 10 -28 18 -31 18 -3 0 -38 19 -79 43 -40 24 -93 55 -118 69 -25 14
-131 75 -237 137 -105 61 -194 111 -198 111 -3 0 -4 -122 -3 -271 l3 -271 224
-129 c123 -71 227 -129 232 -129 5 0 9 -3 9 -7 0 -5 10 -13 23 -19 12 -5 155
-87 317 -180 162 -94 447 -258 633 -365 l338 -194 -5 -45 c-6 -45 -9 -59 -26
-135 -30 -139 -80 -305 -91 -305 -9 0 -10 0 -264 148 -104 60 -206 119 -225
129 -19 11 -181 104 -360 208 -179 103 -345 199 -370 213 -53 30 -108 62 -135
80 -11 6 -27 15 -35 19 -8 4 -63 35 -122 69 -59 35 -117 68 -128 74 -20 11
-20 9 -20 -262 l0 -273 183 -104 c153 -88 596 -344 717 -414 19 -11 56 -32 81
-46 25 -14 123 -71 218 -126 95 -55 191 -110 214 -123 23 -13 46 -27 51 -32
21 -21 -199 -360 -347 -532 l-49 -58 -28 20 c-15 11 -30 20 -33 20 -4 0 -93
51 -297 170 -69 40 -145 84 -170 98 -25 14 -101 58 -170 97 -69 40 -141 82
-160 93 -19 10 -165 95 -324 187 -159 92 -303 175 -320 185 -17 9 -91 52 -164
94 -74 43 -155 89 -180 103 -26 15 -60 34 -76 44 l-28 17 33 18 c98 50 214
166 277 275 59 104 85 201 88 334 3 86 -1 137 -12 180 -9 33 -17 67 -19 76 -7
33 -74 156 -118 214 -92 123 -233 216 -387 256 -272 70 -572 -25 -741 -235
-74 -92 -53 -76 -236 -180 -79 -46 -565 -326 -798 -460 -926 -536 -1228 -707
-1235 -700 -29 31 -148 450 -153 539 -2 50 -5 47 123 118 14 7 84 47 155 89
72 42 146 85 165 95 19 11 80 46 135 78 145 84 531 307 1420 820 160 92 341
196 403 232 l113 66 45 -32 c61 -45 177 -97 254 -115 44 -10 103 -14 185 -12
205 5 346 66 495 216 66 67 95 104 128 170 110 220 110 448 -1 670 -33 68 -60
103 -132 176 -77 77 -104 97 -185 136 -217 106 -435 107 -647 4 -283 -138
-436 -427 -400 -752 l7 -62 -42 -25 c-24 -14 -60 -34 -80 -46 -21 -11 -124
-71 -230 -132 -106 -61 -213 -123 -238 -137 -25 -14 -198 -114 -385 -222 -187
-108 -367 -212 -400 -230 -33 -18 -72 -41 -87 -51 -14 -11 -29 -19 -33 -19 -3
0 -31 -16 -61 -35 -30 -19 -57 -35 -60 -35 -2 0 -53 -29 -112 -64 -142 -84
-581 -336 -586 -336 -5 0 1 184 9 260 4 36 8 81 10 100 3 31 14 99 30 195 3
17 12 59 21 96 8 36 16 72 18 80 12 66 92 306 141 424 275 664 802 1225 1450
1545 292 144 627 249 910 286 28 3 58 8 67 9 127 25 599 25 738 1 14 -2 48 -7
75 -11 433 -58 907 -244 1280 -503 138 -95 217 -161 354 -288 374 -350 653
-789 809 -1274 17 -52 34 -108 38 -125 4 -16 9 -34 10 -40 2 -5 11 -42 20 -81
9 -40 23 -75 33 -81 16 -10 373 -217 448 -259 23 -13 45 -24 49 -24 6 0 0 76
-10 140 -3 14 -7 43 -10 66 -9 71 -46 245 -76 361 -112 423 -305 825 -568
1183 -166 225 -424 491 -652 670 -467 367 -1043 619 -1610 706 -25 3 -52 8
-60 9 -8 2 -44 6 -80 10 -36 4 -81 10 -100 12 -42 5 -536 13 -541 9z m-447
-3984 c57 -138 174 -276 294 -343 30 -17 54 -34 54 -39 0 -4 -143 -90 -317
-190 -175 -101 -462 -267 -638 -368 -176 -102 -334 -193 -352 -203 -18 -10
-165 -95 -327 -189 -162 -93 -301 -170 -308 -170 -25 0 -255 305 -327 432
l-20 37 67 39 c169 98 330 192 362 211 19 11 42 24 50 28 8 4 47 26 85 48 39
23 90 53 115 67 25 14 117 67 205 118 88 51 178 103 200 115 22 13 216 125
430 249 215 124 392 225 395 226 3 0 17 -31 32 -68z m1324 -1108 c680 -393
730 -422 974 -562 129 -75 247 -143 262 -151 16 -9 28 -19 28 -22 0 -10 -143
-117 -255 -191 -210 -139 -444 -253 -694 -337 -122 -41 -321 -94 -395 -105
-21 -4 -48 -8 -60 -11 -41 -9 -98 -16 -231 -30 l-45 -4 0 824 c0 454 2 825 3
825 2 0 188 -106 413 -236z m-887 -599 l0 -816 -47 6 c-134 15 -216 26 -221
29 -3 2 -28 7 -55 10 -94 13 -355 85 -493 136 -170 64 -407 178 -528 254 -76
48 -187 125 -258 179 l-78 59 33 18 c18 9 148 84 288 166 140 81 273 157 295
170 62 34 923 532 985 569 30 18 60 34 67 34 8 1 11 -200 12 -814z"/>
</g>
</svg>
